<svg xmlns="http://www.w3.org/2000/svg" data-name="Layer 1" viewBox="0 0 128 128" id="cloud-computing"><path fill="#394f62" d="M93.02179,85.22366h.89306A27.08051,27.08051,0,0,0,114.26359,75.647a30.245,30.245,0,0,0,5.79206-10.36367,21.96081,21.96081,0,0,0,.91432-9.63649,23.01941,23.01941,0,0,0-3.27452-9.12194c-.3402-.54424-4.865-5.94494-5.00108-5.71549A25.12026,25.12026,0,1,0,68.97753,16.055a25.55358,25.55358,0,0,0-41.80743,16.9085c0-.33182-8.131,2.50464-8.8582,2.92575a23.04567,23.04567,0,0,0-6.95727,6.24291c-10.7251,14.5652-.90581,35.403,14.79057,41.246a29.49521,29.49521,0,0,0,8.83268,1.80736v-11.937H48.7053V85.22366H57.134V73.24845h13.7317V85.22366h8.42868V73.24845H93.02179Z"></path><path fill="#1188c6" d="M74.68878 107.57542H68.31412V75.8H59.68981v31.77541H53.31515a.71064.71064 0 0 0-.59112 1.10572L63.41084 124.552a.71143.71143 0 0 0 1.178 0l10.68682-15.87088A.709.709 0 0 0 74.68878 107.57542zM37.52945 85.22366v8.39891H25.17561V87.248a.70892.70892 0 0 0-1.10569-.58681L8.19917 97.348a.71123.71123 0 0 0 0 1.178l15.87075 10.68677a.71054.71054 0 0 0 1.10569-.591V102.247H46.15373V75.8H37.52945zM119.8005 97.348L103.92975 86.6612a.70892.70892 0 0 0-1.10569.58681v6.37456H90.47022V75.8H81.84594v26.447h20.97812v6.37477a.71054.71054 0 0 0 1.10569.591L119.8005 98.526A.70721.70721 0 0 0 119.8005 97.348z"></path></svg>