<svg xmlns="http://www.w3.org/2000/svg" viewBox="0 0 64 64" id="computer-network"><path fill="#e0e0e2" d="M50 22v4a2.006 2.006 0 0 1-2 2H16a2.006 2.006 0 0 1-2-2V22zM3 54H17v1a2.006 2.006 0 0 1-2 2H5a2.006 2.006 0 0 1-2-2zM25 54H39v1a2.006 2.006 0 0 1-2 2H27a2.006 2.006 0 0 1-2-2zM47 54H61v1a2.006 2.006 0 0 1-2 2H49a2.006 2.006 0 0 1-2-2z"></path><path fill="#bdfdff" d="M17 49v5H3V49a2.006 2.006 0 0 1 2-2H15A2.006 2.006 0 0 1 17 49zM25 54V49a2.006 2.006 0 0 1 2-2H37a2.006 2.006 0 0 1 2 2v5zM61 49v5H47V49a2.006 2.006 0 0 1 2-2H59A2.006 2.006 0 0 1 61 49z"></path><path fill="#dafeff" d="M54 47H49a2.006 2.006 0 0 0-2 2v5A7.021 7.021 0 0 1 54 47zM32 47H27a2.006 2.006 0 0 0-2 2v5A7.021 7.021 0 0 1 32 47zM10 47H5a2.006 2.006 0 0 0-2 2v5A7.021 7.021 0 0 1 10 47z"></path><rect width="4" height="4" x="8" y="57" fill="#898890"></rect><rect width="4" height="4" x="30" y="57" fill="#898890"></rect><rect width="4" height="4" x="52" y="57" fill="#898890"></rect><path fill="#898890" d="M27,25a1,1,0,0,1-1-1V22H38v2a1,1,0,0,1-1,1Z"></path><path fill="#bdfdff" d="M48,5V22H16V5a2.058,2.058,0,0,1,2.06-2H46A2.006,2.006,0,0,1,48,5Z"></path><path fill="#dafeff" d="M35,3H18.06A2.058,2.058,0,0,0,16,5V22A19.056,19.056,0,0,1,35,3Z"></path><rect width="4" height="1" x="52" y="57" fill="#787680"></rect><rect width="4" height="1" x="30" y="57" fill="#787680"></rect><rect width="4" height="1" x="8" y="57" fill="#787680"></rect><rect width="10" height="2" x="27" y="60" fill="#57565c"></rect><rect width="10" height="2" x="49" y="60" fill="#57565c"></rect><rect width="10" height="2" x="5" y="60" fill="#57565c"></rect><path fill="#5aaae7" d="M55 47H53V39H34V37H54a1 1 0 0 1 1 1zM11 47H9V38a1 1 0 0 1 1-1H30v2H11z"></path><rect width="2" height="9" x="31" y="28" fill="#5aaae7"></rect><rect width="2" height="7" x="31" y="40" fill="#5aaae7"></rect><circle cx="32" cy="38" r="3" fill="#ff5023"></circle><rect width="4" height="2" x="19" y="6" fill="#1a6fb0"></rect><rect width="4" height="2" x="25" y="6" fill="#1a6fb0"></rect><rect width="6" height="2" x="31" y="6" fill="#1a6fb0"></rect><rect width="6" height="2" x="19" y="10" fill="#1a6fb0"></rect><rect width="6" height="2" x="27" y="10" fill="#1a6fb0"></rect></svg>