<svg xmlns="http://www.w3.org/2000/svg" viewBox="0 0 64 64" id="computer-graphics"><path fill="#acb3ba" d="M62 50.95H2c-1.1 0-2-.9-2-2V4.4c0-1.1.9-2 2-2h60c1.1 0 2 .9 2 2v44.56c0 1.1-.9 1.99-2 1.99z"></path><path fill="#fff" d="M5.1 7.09h53.8v36.43H5.1z"></path><circle cx="8.13" cy="47.24" r="1.23" fill="#c6ced7"></circle><path fill="#c6ced7" d="M15.22 47.24a1.23 1.23 0 1 1-2.46 0c0-.68.55-1.24 1.23-1.24.68 0 1.23.56 1.23 1.24zm5.86 0a1.23 1.23 0 1 1-2.46 0c0-.68.54-1.24 1.22-1.24.68 0 1.24.56 1.24 1.24z"></path><path fill="#e8e8e7" d="M41.66 50.95H22.34c-.06 1.29-.64 5.55-1.74 7.09h22.8c-1.1-1.53-1.68-5.8-1.74-7.09z"></path><path fill="#cdd6e0" d="M49.05 61.6h-34.1v-2.56c0-.55.45-1 1-1h32.11c.55 0 1 .45 1 1v2.56z"></path><path fill="#ba8f64" d="M43.17 38.19c-2.06-.67-6.92-2.53-10.57-6.18-2.55-2.55-4.52-5.17-5.58-7.27a.35.35 0 0 1 .07-.41l2.92-2.92a.35.35 0 0 1 .41-.07c2.1 1.06 4.72 3.02 7.27 5.58 3.65 3.65 5.52 8.51 6.18 10.57.15.43-.26.84-.7.7z"></path><path fill="#676767" d="m27.18 24.23-2.39-2.98 2.15-2.15 2.98 2.4z"></path><path fill="#e36e68" d="M26.94 19.1c-.16-4.17-3.74-2.67-6.38-6.59-.13-.2-.44-.11-.45.13-.13 4.81.42 8.68 4.68 8.61l2.15-2.15z"></path></svg>