<svg xmlns="http://www.w3.org/2000/svg" width="64" height="64" id="cyber"><path style="line-height:normal;text-indent:0;text-align:start;text-decoration-line:none;text-decoration-style:solid;text-decoration-color:#000;text-transform:none;block-progression:tb;isolation:auto;mix-blend-mode:normal" fill="#474545" fill-rule="evenodd" d="m636.242 1034.926-.484.873 8.742 4.857v8.705h1v-9.293l-9.258-5.142zm-22.484 0-9.258 5.142v9.293h1v-8.705l8.742-4.857-.484-.873zm30.742-26.565v8.707l-8.742 4.858.484.873 9.258-5.143v-9.295h-1zm-40 0v9.295l9.258 5.143.484-.873-8.742-4.858v-8.707h-1zm30.5 22.5v1h17v-1h-17zm-37 0v1h17v-1h-17zm26.5-31.5v11h1v-11zm0 42v13h1v-13h-1z" color="#000" font-family="sans-serif" font-weight="400" overflow="visible" transform="translate(-593 -995.362)"></path><path style="line-height:normal;text-indent:0;text-align:start;text-decoration-line:none;text-decoration-style:solid;text-decoration-color:#000;text-transform:none;block-progression:tb;isolation:auto;mix-blend-mode:normal" fill="#dfe3e6" d="M625 21c-4.395 0-7.988 3.568-7.988 7.951V35h3v-6.049c0-2.763 2.193-4.951 4.988-4.951 2.795 0 4.988 2.188 4.988 4.951V35h3v-6.049c0-4.383-3.593-7.951-7.988-7.951Z" color="#000" font-family="sans-serif" font-weight="400" overflow="visible" transform="translate(-593 -7)"></path><path fill="#49b2d6" d="M21 26h22c.554 0 1 .446 1 1v20c0 .554-.446 1-1 1H21c-.554 0-1-.446-1-1V27c0-.554.446-1 1-1z"></path><path fill="#eff4f7" fill-rule="evenodd" d="M20 46h24v-6H20z"></path><path fill="#5e5c5c" d="M23 42h2v2h-2zm4 0h2v2h-2zm4 0h2v2h-2zm4 0h2v2h-2zm4 0h2v2h-2z"></path><path fill="#474545" d="M34 32a2 2 0 0 1-2 2 2 2 0 0 1-2-2 2 2 0 0 1 2-2 2 2 0 0 1 2 2z"></path><path fill="#474545" d="M31 32h2v5h-2z"></path><path fill="#dfe3e6" d="M30 2h4v4h-4zm28 32h4v4h-4zM30 58h4v4h-4zM2 34h4v4H2z"></path><path fill="#f4608a" d="M10 52h4v4h-4zm40 0h4v4h-4zM10 11h4v4h-4zm40 0h4v4h-4z"></path><path fill="#726f6f" d="M13 45a1 1 0 0 1-1 1 1 1 0 0 1-1-1 1 1 0 0 1 1-1 1 1 0 0 1 1 1zm40 0a1 1 0 0 1-1 1 1 1 0 0 1-1-1 1 1 0 0 1 1-1 1 1 0 0 1 1 1zM13 22a1 1 0 0 1-1 1 1 1 0 0 1-1-1 1 1 0 0 1 1-1 1 1 0 0 1 1 1zm40 0a1 1 0 0 1-1 1 1 1 0 0 1-1-1 1 1 0 0 1 1-1 1 1 0 0 1 1 1z"></path></svg>