<svg xmlns="http://www.w3.org/2000/svg" data-name="Layer 3" viewBox="0 0 64 64" id="data-visualization"><path fill="#c1cfe8" d="M62,10a3,3,0,0,0-3-3H5a3,3,0,0,0-3,3V54a3,3,0,0,0,3,3H59a3,3,0,0,0,3-3Z"></path><path fill="#d7e0ef" d="M59,7H7V49a3,3,0,0,0,3,3H62V10A3,3,0,0,0,59,7Z"></path><path fill="#a5badb" d="M59,7H5a3,3,0,0,0-3,3v1H62V10A3,3,0,0,0,59,7Z"></path><circle cx="15" cy="24" r="9" fill="#fcb732"></circle><path fill="#ffc76f" d="M15,15a8.948,8.948,0,0,0-5.279,1.721A8.989,8.989,0,0,0,22.279,29.279,8.989,8.989,0,0,0,15,15Z"></path><rect width="28" height="18" x="30" y="35" fill="#fff"></rect><polyline fill="#e73844" points="34 53 34 45 38 45 38 42 42 42 42 47 46 47 46 42 50 42 50 39 54 39 54 53"></polyline><rect width="4" height="11" x="38" y="42" fill="#8dbf00"></rect><rect width="4" height="6" x="42" y="47" fill="#66c3e9"></rect><polyline fill="#f79b31" points="46 53 46 42 50 42 50 53"></polyline><rect width="18" height="2" x="41" y="16" fill="#fff"></rect><rect width="26" height="2" x="33" y="20" fill="#fff"></rect><rect width="26" height="2" x="33" y="24" fill="#fff"></rect><rect width="26" height="2" x="33" y="28" fill="#fff"></rect><rect width="4" height="4" x="6" y="41" fill="#43b6e5"></rect><rect width="4" height="4" x="6" y="49" fill="#43b6e5"></rect><rect width="10" height="2" x="13" y="40" fill="#fff"></rect><rect width="14" height="2" x="13" y="44" fill="#fff"></rect><rect width="10" height="2" x="13" y="48" fill="#fff"></rect><rect width="14" height="2" x="13" y="52" fill="#fff"></rect><rect width="4" height="4" x="6" y="7" fill="#f9cb5d"></rect><path fill="#e73844" d="M5,7a3,3,0,0,0-3,3v1H6V7Z"></path><rect width="4" height="4" x="10" y="7" fill="#8dbf00"></rect><path fill="#006bdb" d="M23.308,20.538A9,9,0,0,0,15,15v9Z"></path><rect width="4" height="14" x="50" y="39" fill="#0059be"></rect><path fill="#006bdb" d="M52,39V49a2,2,0,0,0,2,2V39Z"></path><path fill="#fcb732" d="M48,49a2,2,0,0,0,2,2V42H48Z"></path><path fill="#8adef9" d="M44,47v2a2,2,0,0,0,2,2V47Z"></path><path fill="#a8d600" d="M40,42v7a2,2,0,0,0,2,2V42Z"></path><path fill="#ff4d55" d="M36,45v4a2,2,0,0,0,2,2V45Z"></path></svg>