<svg xmlns="http://www.w3.org/2000/svg" enable-background="new 0 0 64 64" viewBox="0 0 64 64" id="marketing"><path fill="#e3dcff" d="M16,5h16c3.3,0,6,2.7,6,6c0,3.3-2.7,6-6,6h-5v4c0,0.8-0.4,1.5-1.1,1.8C25.6,22.9,25.3,23,25,23
		c-0.4,0-0.8-0.1-1.2-0.4L16,17h0c-3.3,0-6-2.7-6-6C10,7.7,12.7,5,16,5z"></path><path fill="#c9c1f7" d="M32,17c3.3,0,6-2.7,6-6h-3.4c-3.3,0-5.9,2.6-5.9,5.9V17H32z"></path><path fill="#f5f3ff" d="M27,5h-9c-0.6,0-1,0.4-1,1v0c0,0.6,0.4,1,1,1h9c0.6,0,1-0.4,1-1v0C28,5.4,27.6,5,27,5z"></path><path fill="#173ba0" d="M21.2,62.8c-0.5,0-1-0.2-1.4-0.6l-9.2-9.2c-0.8-0.8-0.8-2,0-2.8s2-0.8,2.8,0l9.2,9.2c0.8,0.8,0.8,2,0,2.8
		C22.3,62.6,21.8,62.8,21.2,62.8z"></path><path fill="#3d5df8" d="M46,24c0-0.6-2.4-1.9-3-1.7L9.6,30.5C6.9,31,2,33.9,2,41.5C2,51,8.3,52.4,8.5,52.4l34.8,8.4
		c1.4,0.2,1.6,0,1.9-0.2c0.5-0.4,0.8-1,0.8-1.6L46,24z"></path><path fill="#2345c1" d="M34.2,43.2c0,0-3.6,7.8-15.5,6.6c-10-1-14.9-3.7-16.3-4.5c1.4,6.1,6,7.2,6.1,7.2l34.8,8.4c0.1,0,0.2,0,0.2,0
		l1.5-2.6L34.2,43.2z"></path><ellipse cx="45" cy="41.5" fill="#f5f3ff" rx="9.3" ry="16.7"></ellipse><path fill="#e3dcff" d="M45,61c-6.7,0-12-8.6-12-19.5S38.3,22,45,22s12,8.6,12,19.5S51.7,61,45,61z M45,27.6c-3.2,0-6.7,5.7-6.7,13.9
			s3.5,13.9,6.7,13.9s6.7-5.7,6.7-13.9S48.2,27.6,45,27.6z"></path><path fill="#2345c1" d="M43.7,42.3c0-3-2.1-5.5-4.8-6.1c-0.3,1.6-0.5,3.4-0.5,5.3c0,2.5,0.3,4.8,0.9,6.8
				C41.8,47.6,43.7,45.2,43.7,42.3z"></path><path fill="#f5f3ff" d="M54.1,53c-0.1,0-0.3,0-0.4-0.1c-0.5-0.2-0.8-0.8-0.5-1.3c1.2-3,1.9-6.5,1.9-10.1c0-1.1-0.1-2.3-0.2-3.4
			c-0.1-0.5,0.3-1,0.9-1.1c0.6-0.1,1,0.3,1.1,0.9c0.1,1.2,0.2,2.4,0.2,3.6c0,3.9-0.7,7.7-2,10.9C54.8,52.8,54.5,53,54.1,53z"></path><path fill="#6989ff" d="M12.5 31.8c-.4 0-.9-.3-1-.8-.1-.5.2-1.1.7-1.2l12.4-3.1c.5-.1 1.1.2 1.2.7.1.5-.2 1.1-.7 1.2l-12.4 3.1C12.6 31.8 12.5 31.8 12.5 31.8zM29 27.7c-.4 0-.9-.3-1-.8-.1-.5.2-1.1.7-1.2l5.2-1.3c.5-.1 1.1.2 1.2.7.1.5-.2 1.1-.7 1.2l-5.2 1.3C29.2 27.7 29.1 27.7 29 27.7z"></path><path fill="#c9c1f7" d="M48.5,22.8h-7c-2.3,1.1-4.3,3.3-5.8,6.2c1.5-0.2,4.3,0,5.6,1c1.1-1.6,2.4-2.5,3.7-2.5c2.1,0,4.4,2.6,5.7,6.7
		c0,0,0.6-1.5,2-2.5c1.2-0.9,2.5-0.7,2.5-0.7C53.7,27.1,51.3,24.2,48.5,22.8z"></path><path fill="#00d8eb" d="M37.9,11h18.2c3.3,0,5.9,2.6,5.9,5.9v4.2c0,3.3-2.6,5.9-5.9,5.9H56c0,0,0,0,0,0h-1l-7.8,5.6
				C46.9,32.9,46.4,33,46,33c-0.3,0-0.6-0.1-0.9-0.2c-0.7-0.3-1.1-1-1.1-1.8v-4h-4c0,0,0,0,0,0h-2.1c-3.3,0-5.9-2.6-5.9-5.9v-4.2
				C32,13.6,34.6,11,37.9,11z"></path><path fill="#48fbff" d="M55,13H42c-0.6,0-1-0.4-1-1v0c0-0.6,0.4-1,1-1h13c0.6,0,1,0.4,1,1v0C56,12.6,55.5,13,55,13z"></path><path fill="#3d5df8" d="M55 21h-8c-1.1 0-2-.9-2-2s.9-2 2-2h8c1.1 0 2 .9 2 2S56.1 21 55 21zM41 21h-1c-1.1 0-2-.9-2-2s.9-2 2-2h1c1.1 0 2 .9 2 2S42.1 21 41 21z"></path></svg>