<svg xmlns="http://www.w3.org/2000/svg" viewBox="0 0 32 32" id="computer"><g data-name="desktop computer"><rect width="5" height="5" x="1.5" y="25.5" fill="#6f6571" rx=".5" ry=".5"></rect><path fill="#585159" d="M6.5 26v4a.5.5 0 0 1-.5.5H4v-5h2a.5.5 0 0 1 .5.5Z"></path><rect width="5" height="5" x="25.5" y="25.5" fill="#6f6571" rx=".5" ry=".5"></rect><path fill="#585159" d="M30.5 26v4a.5.5 0 0 1-.5.5h-2v-5h2a.5.5 0 0 1 .5.5Z"></path><rect width="7" height="15" x="22.5" y="5.5" fill="#6f6571" rx=".5" ry=".5"></rect><path fill="#585159" d="M29.5 6v14a.5.5 0 0 1-.5.5h-3v-15h3a.5.5 0 0 1 .5.5Z"></path><rect width="7" height="3" x="22.5" y="3.5" fill="#eceaec" rx=".5" ry=".5"></rect><path fill="#afc7e2" d="M27.5 8.08v6a.5.5 0 0 1-.5.5h-2a.5.5 0 0 1-.5-.5v-6a.5.5 0 0 1 .5-.5h2a.5.5 0 0 1 .5.5Z"></path><circle cx="26" cy="17.04" r="1.5" fill="#e2747f"></circle><path fill="#dad8db" d="M17.56 20.29a.49.49 0 0 1-.4.21H5.79a.52.52 0 0 1-.41-.21.52.52 0 0 1-.07-.45l.93-2.76v-1.82a.5.5 0 0 1 .5-.5h9.47a.5.5 0 0 1 .5.5v1.82l.92 2.76a.49.49 0 0 1-.07.45Z"></path><path fill="#cbcacc" d="M17.56 20.29a.49.49 0 0 1-.4.21h-5.69v-5.74h4.74a.5.5 0 0 1 .5.5v1.82l.92 2.76a.49.49 0 0 1-.07.45Z"></path><path fill="#dad8db" d="M29.74 19.5H2.26c-.42 0-.76.22-.76.5v6c0 .28.34.5.76.5h27.48c.42 0 .76-.22.76-.5v-6c0-.28-.34-.5-.76-.5Z"></path><path fill="#ffe07d" d="M30.5 20v6a.48.48 0 0 1-.47.5H13a.48.48 0 0 1-.47-.5v-6a.48.48 0 0 1 .47-.5h17a.48.48 0 0 1 .5.5Z"></path><path fill="#ffc269" d="M30.5 20v6a.48.48 0 0 1-.47.5H21v-7h9a.48.48 0 0 1 .5.5Z"></path><rect width="11" height="7" x="1.5" y="19.5" fill="#ffe07d" rx=".5" ry=".5"></rect><path fill="#ffc269" d="M12.5 20v6a.5.5 0 0 1-.5.5H7v-7h5a.5.5 0 0 1 .5.5Z"></path><path fill="#6f6571" d="M21.45 2v13.26a.5.5 0 0 1-.5.5H2a.5.5 0 0 1-.5-.5V2a.5.5 0 0 1 .5-.5h19a.5.5 0 0 1 .45.5Z"></path><path fill="#585159" d="M21.45 2v13.26a.5.5 0 0 1-.5.5h-9.48V1.5H21a.5.5 0 0 1 .45.5Z"></path><path fill="#eceaec" d="M19.55 3.89v9.48a.5.5 0 0 1-.5.5H3.89a.5.5 0 0 1-.5-.5V3.89a.51.51 0 0 1 .5-.5h15.16a.5.5 0 0 1 .5.5Z"></path><circle cx="7" cy="23" r="1.5" fill="#6f6571"></circle><rect width="7" height="3" x="17.5" y="21.5" fill="#6f6571" rx=".5" ry=".5"></rect><path fill="#e0e0e0" d="M19.55 3.89v9.48a.5.5 0 0 1-.5.5h-7.58V3.39h7.58a.5.5 0 0 1 .5.5Z"></path><path fill="#bc6169" d="M27.5 17a1.5 1.5 0 0 1-1.5 1.5v-3a1.5 1.5 0 0 1 1.5 1.5Z"></path><path fill="#93a8bc" d="M27.5 8.08v6a.5.5 0 0 1-.5.5h-1v-7h1a.5.5 0 0 1 .5.5Z"></path><path fill="#e0e0e0" d="M29.5 4v2a.5.5 0 0 1-.5.5h-3v-3h3a.5.5 0 0 1 .5.5Z"></path><path fill="#585159" d="M24.5 22v2a.5.5 0 0 1-.5.5h-3v-3h3a.5.5 0 0 1 .5.5zm-16 1A1.5 1.5 0 0 1 7 24.5v-3A1.5 1.5 0 0 1 8.5 23z"></path></g></svg>