<svg xmlns="http://www.w3.org/2000/svg" viewBox="0 0 64 64" id="human-automation"><g data-name="Layer 13"><rect width="4" height="6" x="34" y="24" fill="#958573"></rect><rect width="2" height="6" x="34" y="24" fill="#c7b299"></rect><rect width="4" height="8" x="30" y="22" fill="#534741"></rect><rect width="2" height="8" x="30" y="22" fill="#736357"></rect><rect width="4" height="10" x="26" y="20" fill="#958573"></rect><rect width="2" height="10" x="26" y="20" fill="#c7b299"></rect><path fill="#007f76" d="M13,46h0A11,11,0,0,1,24,57v5a0,0,0,0,1,0,0H2a0,0,0,0,1,0,0V57A11,11,0,0,1,13,46Z"></path><path fill="#00a99d" d="M11.5,46.11A11,11,0,0,0,2,57v5H21V57A11,11,0,0,0,11.5,46.11Z"></path><path fill="#f6e431" d="M51,46h0A11,11,0,0,1,62,57v5a0,0,0,0,1,0,0H40a0,0,0,0,1,0,0V57A11,11,0,0,1,51,46Z"></path><path fill="#f7e95a" d="M49.5,46.11A11,11,0,0,0,40,57v5H59V57A11,11,0,0,0,49.5,46.11Z"></path><circle cx="13" cy="37" r="9" fill="#f9a94b"></circle><ellipse cx="11" cy="37" fill="#fabe78" rx="7" ry="8.77"></ellipse><circle cx="51" cy="37" r="9" fill="#f9a94b"></circle><ellipse cx="49" cy="37" fill="#fabe78" rx="7" ry="8.77"></ellipse><path fill="#4d4d4d" d="M51 28v2.17A6.84 6.84 0 0 1 49 35h0a6.84 6.84 0 0 1-4.83 2H42a9 9 0 0 1 18 0H57.83A6.84 6.84 0 0 1 53 35h0a6.84 6.84 0 0 1-2-4.83V28M13 28v2.17A6.84 6.84 0 0 1 11 35h0a6.84 6.84 0 0 1-4.83 2H4a9 9 0 0 1 18 0H19.83A6.84 6.84 0 0 1 15 35h0a6.84 6.84 0 0 1-2-4.83V28"></path><circle cx="53" cy="11" r="9" fill="#911d22"></circle><ellipse cx="51.5" cy="11" fill="#c1272d" rx="7.5" ry="8.87"></ellipse><circle cx="11" cy="11" r="9" fill="#69952f"></circle><ellipse cx="9.5" cy="11" fill="#8cc63f" rx="7.5" ry="8.87"></ellipse><circle cx="13" cy="37" r="9" fill="none" stroke="#000" stroke-linejoin="round" stroke-width="2"></circle><path fill="none" stroke="#000" stroke-linejoin="round" stroke-width="2" d="M13 28v2.17A6.84 6.84 0 0 1 11 35h0a6.84 6.84 0 0 1-4.83 2H4M22 37H19.83A6.84 6.84 0 0 1 15 35h0a6.84 6.84 0 0 1-2-4.83V28M13 46h0A11 11 0 0 1 24 57v5a0 0 0 0 1 0 0H2a0 0 0 0 1 0 0V57A11 11 0 0 1 13 46z"></path><polyline fill="none" stroke="#000" stroke-linejoin="round" stroke-width="2" points="9 47 13 51 17 47"></polyline><line x1="13" x2="13" y1="51" y2="62" fill="none" stroke="#000" stroke-linejoin="round" stroke-width="2"></line><circle cx="51" cy="37" r="9" fill="none" stroke="#000" stroke-linejoin="round" stroke-width="2"></circle><path fill="none" stroke="#000" stroke-linejoin="round" stroke-width="2" d="M51 28v2.17A6.84 6.84 0 0 1 49 35h0a6.84 6.84 0 0 1-4.83 2H42M60 37H57.83A6.84 6.84 0 0 1 53 35h0a6.84 6.84 0 0 1-2-4.83V28M51 46h0A11 11 0 0 1 62 57v5a0 0 0 0 1 0 0H40a0 0 0 0 1 0 0V57A11 11 0 0 1 51 46z"></path><polyline fill="none" stroke="#000" stroke-linejoin="round" stroke-width="2" points="47 47 51 51 55 47"></polyline><line x1="51" x2="51" y1="51" y2="62" fill="none" stroke="#000" stroke-linejoin="round" stroke-width="2"></line><rect width="4" height="10" x="26" y="20" fill="none" stroke="#000" stroke-linejoin="round" stroke-width="2"></rect><rect width="4" height="8" x="30" y="22" fill="none" stroke="#000" stroke-linejoin="round" stroke-width="2"></rect><rect width="4" height="6" x="34" y="24" fill="none" stroke="#000" stroke-linejoin="round" stroke-width="2"></rect><circle cx="11" cy="11" r="9" fill="none" stroke="#000" stroke-linejoin="round" stroke-width="2"></circle><path fill="none" stroke="#000" stroke-linejoin="round" stroke-width="2" d="M8,13H8a3,3,0,0,0,3,3h0a3,3,0,0,0,3-3h0"></path><circle cx="8" cy="8" r="1" fill="none" stroke="#000" stroke-linejoin="round" stroke-width="2"></circle><circle cx="14" cy="8" r="1" fill="none" stroke="#000" stroke-linejoin="round" stroke-width="2"></circle><circle cx="53" cy="11" r="9" fill="none" stroke="#000" stroke-linejoin="round" stroke-width="2"></circle><path fill="none" stroke="#000" stroke-linejoin="round" stroke-width="2" d="M56,16h0a3,3,0,0,0-3-3h0a3,3,0,0,0-3,3h0"></path><circle cx="50" cy="8" r="1" fill="none" stroke="#000" stroke-linejoin="round" stroke-width="2"></circle><circle cx="56" cy="8" r="1" fill="none" stroke="#000" stroke-linejoin="round" stroke-width="2"></circle><path fill="none" stroke="#000" stroke-linejoin="round" stroke-width="2" d="M34 17V13a4 4 0 0 1 4-4h3M30 17V13a4 4 0 0 0-4-4H23"></path><polyline fill="none" stroke="#000" stroke-linejoin="round" stroke-width="2" points="37 57 34 57 34 33"></polyline><polyline fill="none" stroke="#000" stroke-linejoin="round" stroke-width="2" points="27 57 30 57 30 33"></polyline></g></svg>