<svg xmlns="http://www.w3.org/2000/svg" viewBox="0 0 512 512" id="management"><path fill="#a79ba7" fill-rule="evenodd" d="m369.42 84.62 38.239-27.686 47.408 47.408-27.687 38.238c14.343 21.624 24.702 46.119 30.031 72.44L504 222.478v67.045l-46.588 7.457c-5.327 26.322-15.691 50.813-30.031 72.44l27.686 38.239-47.408 47.408-38.239-27.687c-21.624 14.343-46.119 24.702-72.44 30.031L289.523 504h-67.045l-7.457-46.588c-26.322-5.327-50.813-15.691-72.44-30.031l-38.239 27.686-47.408-47.408L84.62 369.42c-14.343-21.624-24.702-46.119-30.031-72.44L8 289.523v-67.045l46.588-7.458c5.327-26.322 15.691-50.813 30.032-72.44l-27.686-38.239 47.408-47.408L142.58 84.62c21.624-14.343 46.12-24.702 72.44-30.031L222.478 8h67.045l7.457 46.588c26.32 5.33 50.813 15.691 72.44 30.032z" clip-rule="evenodd"></path><path fill="#837683" fill-rule="evenodd" d="m142.58 427.38-38.239 27.686-8.4-8.4 35.861-25.964a205.75 205.75 0 0 0 10.778 6.678zM396.058 65.333l11.601-8.4 47.408 47.408-27.687 38.239c14.343 21.624 24.702 46.119 30.031 72.44L504 222.478v67.045l-46.588 7.457c-5.327 26.322-15.691 50.813-30.031 72.44l27.686 38.239-47.408 47.408-11.601-8.4 39.008-39.008-27.686-38.239c14.341-21.627 24.704-46.118 30.031-72.44l46.588-7.457v-67.045l-46.588-7.457c-5.33-26.321-15.689-50.816-30.031-72.44l27.686-38.239-39.008-39.009zM269.522 8h20.001l7.457 46.588c25.535 5.171 49.351 15.077 70.497 28.759.599.441 1.241.867 1.943 1.273l-9.223 6.678c-21.626-14.341-56.898-31.379-83.218-36.709L269.522 8zm97.023 421.252a204.286 204.286 0 0 1-69.565 28.16L289.523 504h-20.001l7.457-46.588c26.32-5.33 61.593-22.367 83.217-36.71l9.223 6.678a33.726 33.726 0 0 0-2.874 1.872zM95.942 65.333l8.4-8.4L142.58 84.62a205.977 205.977 0 0 0-10.777 6.678L95.942 65.333z" clip-rule="evenodd"></path><circle cx="256" cy="256" r="157.534" fill="#eceff1" fill-rule="evenodd" clip-rule="evenodd"></circle><path fill="#d1d1d6" fill-rule="evenodd" d="M256 98.466c3.36 0 6.692.118 10 .325-82.342 5.16-147.534 73.566-147.534 157.209S183.658 408.049 266 413.209c-3.308.207-6.64.325-10 .325-87.003 0-157.534-70.53-157.534-157.534S168.997 98.466 256 98.466z" clip-rule="evenodd"></path><g fill-rule="evenodd" clip-rule="evenodd"><path fill="#ffe177" d="M269.813 253.967h24.45a8 8 0 0 1 8 8v69.464a8 8 0 0 1-8 8h-24.45a8 8 0 0 1-8-8v-69.464a8 8 0 0 1 8-8z"></path><path fill="#ffd064" d="M284.262 253.967h10a8 8 0 0 1 8 8v69.464a8 8 0 0 1-8 8h-10a8 8 0 0 0 8-8v-69.464a8 8 0 0 0-8-8z"></path><path fill="#6cf5c2" d="M217.737 237.293h24.45a8 8 0 0 1 8 8v86.138a8 8 0 0 1-8 8h-24.45a8 8 0 0 1-8-8v-86.138a8 8 0 0 1 8-8z"></path><path fill="#00e499" d="M232.186 237.293h10a8 8 0 0 1 8 8v86.138a8 8 0 0 1-8 8h-10a8 8 0 0 0 8-8v-86.138a8 8 0 0 0-8-8z"></path><path fill="#fe646f" d="M165.661 278.543h24.449a8 8 0 0 1 8 8v44.888a8 8 0 0 1-8 8h-24.449a8 8 0 0 1-8-8v-44.888a8 8 0 0 1 8-8z"></path><path fill="#fd4755" d="M180.11 278.543h10a8 8 0 0 1 8 8v44.888a8 8 0 0 1-8 8h-10a8 8 0 0 0 8-8v-44.888a8 8 0 0 0-8-8z"></path><path fill="#60b7ff" d="M336.338 205.221h10a8 8 0 0 1 8 8v118.21a8 8 0 0 1-8 8h-10a8 8 0 0 0 8-8v-118.21a8 8 0 0 0-8-8z"></path><path fill="#8ac9fe" d="M321.889 205.221h24.45a8 8 0 0 1 8 8v118.21a8 8 0 0 1-8 8h-24.45a8 8 0 0 1-8-8v-118.21a8 8 0 0 1 8-8z"></path><path fill="#a79ba7" d="M182.698 241.503a7.963 7.963 0 0 1-9.625-12.687l52.076-39.541a7.962 7.962 0 0 1 7.957-.973l.012-.027 47.356 20.363 48.264-43.908a7.986 7.986 0 0 1 10.75 11.812l-51.794 47.12a7.996 7.996 0 0 1-8.812 1.693l-47.83-20.567-48.354 36.715z"></path><path fill="#ffe177" d="M282.038 198.28a19.67 19.67 0 0 1 13.952 5.78 19.67 19.67 0 0 1 5.78 13.952 19.67 19.67 0 0 1-5.78 13.952 19.669 19.669 0 0 1-13.952 5.78 19.67 19.67 0 0 1-13.952-5.78c-3.571-3.57-5.78-8.504-5.78-13.952s2.209-10.381 5.78-13.952a19.672 19.672 0 0 1 13.952-5.78z"></path><path fill="#6cf5c2" d="M229.962 175.887c5.448 0 10.38 2.209 13.951 5.78 3.571 3.571 5.78 8.504 5.78 13.952s-2.209 10.381-5.78 13.951a19.666 19.666 0 0 1-13.951 5.78 19.67 19.67 0 0 1-13.952-5.78c-3.571-3.57-5.78-8.504-5.78-13.951s2.209-10.381 5.78-13.952a19.666 19.666 0 0 1 13.952-5.78z"></path><path fill="#fe646f" d="M177.886 215.428a19.67 19.67 0 0 1 13.952 5.78c3.571 3.571 5.78 8.504 5.78 13.952s-2.209 10.381-5.78 13.952a19.669 19.669 0 0 1-13.952 5.78 19.666 19.666 0 0 1-13.951-5.78c-3.571-3.571-5.78-8.504-5.78-13.952s2.209-10.381 5.78-13.952a19.666 19.666 0 0 1 13.951-5.78z"></path><path fill="#8ac9fe" d="M334.113 150.904a19.67 19.67 0 0 1 13.952 5.78c3.571 3.57 5.78 8.504 5.78 13.952s-2.209 10.38-5.78 13.951a19.67 19.67 0 0 1-13.952 5.78 19.668 19.668 0 0 1-13.951-5.78c-3.571-3.571-5.78-8.504-5.78-13.951s2.209-10.381 5.779-13.952a19.674 19.674 0 0 1 13.952-5.78z"></path><path fill="#a79ba7" d="M156.321 341.448a8 8 0 0 1 0-16h199.358a8 8 0 0 1 0 16H156.321z"></path><path fill="#837683" d="M156.321 341.448a8.002 8.002 0 0 1-7.418-5h206.775a8.003 8.003 0 0 0 7.601-5.5 8 8 0 0 1-7.601 10.5H156.321z"></path></g></svg>