<svg xmlns="http://www.w3.org/2000/svg" viewBox="0 0 52 52" id="audio-software"><path fill="#C4C6C6" d="M31.93 2.779c-.19-.112-.457-.1-.75.073L4.886 18.042c-.582.336-1.047 1.147-1.047 1.816l.056 19.267-1.216-.708-.056-19.266c0-.67.466-1.48 1.048-1.817l26.293-15.19c.293-.168.56-.185.75-.073l1.216.708z"></path><path fill="#3D566E" d="M31.181 2.85c.58-.335 1.053-.066 1.055.602l.055 19.265L3.893 39.124 3.84 19.858c-.002-.668.467-1.48 1.048-1.816L31.18 2.85z"></path><path fill="#FFF" d="M30.996 21.972 5.178 36.887l-.044-17.035c0-.206.216-.585.398-.688l25.41-14.685.054 17.493z"></path><path fill="#C4C6C6" d="m3.895 39.124.008 1.913 16.646 8.71c.577.337 1.513.337 2.095 0l26.293-15.19c.293-.167.44-.392.44-.612l-.009-.938c0 .22-.146.44-.44.608L3.896 39.124z"></path><path fill="#ECF0F1" d="M48.928 33.614 22.64 48.803c-.582.338-1.522.338-2.099 0L3.897 39.12l28.399-16.404L48.939 32.4c.576.332.576.878-.01 1.215z"></path><path fill="#D4D6D6" d="M33.471 24.135v.216l8.115 4.712.186-.107z"></path><path fill="#E0E2E2" d="m6.315 39.848.186.109 26.97-15.606v-.216z"></path><path fill="#C4C6C6" d="m41.586 29.063-8.115-4.712-26.97 15.606 8.083 4.7z"></path><path fill="#E0E2E2" d="m33.918 40.887-6.376 3.71c-.347.2-.774.2-1.107 0l-4.069-2.349a.552.552 0 0 1 0-.961l6.363-3.698a1.12 1.12 0 0 1 1.12-.013l4.056 2.35a.557.557 0 0 1 .013.96z"></path><path fill="#C4C6C6" d="M26.983 44.827c-.205 0-.41-.054-.59-.162l-4.066-2.349a.626.626 0 0 1-.32-.548c0-.23.12-.435.32-.55l6.362-3.697a1.204 1.204 0 0 1 1.2-.013l4.055 2.349c.2.114.32.32.321.549a.625.625 0 0 1-.307.549l-6.376 3.71a1.2 1.2 0 0 1-.599.162zm2.325-7.315a1.08 1.08 0 0 0-.54.146l-6.362 3.697a.47.47 0 0 0-.24.413c0 .171.089.325.24.411l4.068 2.35c.311.187.705.186 1.028 0l6.376-3.71a.468.468 0 0 0 .23-.412.476.476 0 0 0-.243-.413l-4.055-2.35a1.002 1.002 0 0 0-.502-.132z"></path><path fill="#525566" d="m26.168 28.903.001.139 1.073.624v-.139z"></path><path fill="#474B59" d="M27.242 29.527v.139l1.084-.625-.001-.139z"></path><path fill="#5B5E71" d="m26.168 28.903 1.074.624 1.083-.625-1.074-.624z"></path><path fill="#525566" d="m24.48 29.878.001.139 1.074.624-.001-.139z"></path><path fill="#474B59" d="m25.554 30.502.001.139 1.083-.626-.001-.138z"></path><path fill="#5B5E71" d="m24.48 29.878 1.074.624 1.083-.625-1.074-.625z"></path><path fill="#525566" d="m22.79 30.854.001.138 1.074.625-.001-.139z"></path><path fill="#474B59" d="m23.864 31.478.001.139 1.083-.626-.001-.139z"></path><path fill="#5B5E71" d="m22.79 30.854 1.074.624 1.083-.626-1.074-.624z"></path><path fill="#525566" d="m21.1 31.829.001.139 1.074.624-.001-.139z"></path><path fill="#474B59" d="m22.174 32.453.001.139 1.083-.625-.001-.139z"></path><path fill="#5B5E71" d="m21.1 31.829 1.074.624 1.083-.625-1.074-.624z"></path><path fill="#525566" d="m19.412 32.804.001.139 1.074.624-.001-.139z"></path><path fill="#474B59" d="m20.486 33.428.001.139 1.081-.624-.001-.139z"></path><path fill="#5B5E71" d="m19.412 32.804 1.074.624 1.081-.624-1.074-.624z"></path><path fill="#525566" d="m17.722 33.779.001.139 1.074.624-.001-.138z"></path><path fill="#474B59" d="m18.796 34.404.001.138 1.083-.625v-.139z"></path><path fill="#5B5E71" d="m17.722 33.779 1.074.625 1.084-.626-1.074-.624z"></path><path fill="#525566" d="m16.032 34.755.001.139 1.074.624-.001-.139z"></path><path fill="#474B59" d="m17.106 35.379.001.139 1.083-.625v-.139z"></path><path fill="#5B5E71" d="m16.032 34.755 1.074.624 1.084-.625-1.074-.624z"></path><path fill="#525566" d="m14.342 35.731.001.139 1.074.624-.001-.139z"></path><path fill="#474B59" d="m15.416 36.355.001.139 1.083-.625v-.139z"></path><path fill="#5B5E71" d="m14.342 35.731 1.074.624 1.084-.625-1.074-.624z"></path><path fill="#525566" d="M12.655 36.705v.139l1.074.624-.001-.138z"></path><path fill="#474B59" d="m13.728 37.33.001.138 1.083-.625v-.139z"></path><path fill="#5B5E71" d="m12.655 36.705 1.073.625 1.084-.626-1.074-.624z"></path><path fill="#525566" d="m10.964 37.681.001.139 1.074.624-.001-.139z"></path><path fill="#474B59" d="m12.038 38.305.001.139 1.083-.625v-.139z"></path><path fill="#5B5E71" d="m10.964 37.681 1.074.624 1.084-.625-1.074-.624z"></path><path fill="#525566" d="m9.274 38.657.001.139 1.074.624-.001-.139z"></path><path fill="#474B59" d="m10.348 39.281.001.139 1.083-.625v-.139z"></path><path fill="#5B5E71" d="m9.274 38.657 1.074.624 1.084-.625-1.074-.624z"></path><path fill="#525566" d="M7.587 39.631v.139l1.074.624v-.138z"></path><path fill="#474B59" d="M8.661 40.256v.138l1.081-.624v-.139z"></path><path fill="#5B5E71" d="m7.587 39.631 1.074.625 1.081-.625-1.074-.624z"></path><path fill="#525566" d="M32.089 25.485v.139l1.074.624v-.139z"></path><path fill="#474B59" d="M33.163 26.109v.139l1.083-.625v-.139z"></path><path fill="#5B5E71" d="m32.089 25.485 1.074.624 1.083-.625-1.074-.624z"></path><path fill="#525566" d="M30.399 26.461v.139l1.074.624v-.139z"></path><path fill="#474B59" d="M31.473 27.085v.139l1.083-.625v-.139z"></path><path fill="#5B5E71" d="m30.399 26.461 1.074.624 1.083-.625-1.074-.624z"></path><path fill="#525566" d="M28.709 27.437v.138l1.074.625v-.139z"></path><path fill="#474B59" d="M29.783 28.061v.139l1.083-.626v-.139z"></path><path fill="#5B5E71" d="m28.709 27.437 1.074.624 1.083-.626-1.074-.624z"></path><path fill="#474B59" d="M30.404 31.362v.139l1.083-.625v-.139z"></path><path fill="#525566" d="M28.824 30.444v.139l1.58.918v-.139z"></path><path fill="#5B5E71" d="m26.058 30.797 1.074.624 1.692-.977 1.58.918 1.083-.625-2.654-1.542z"></path><path fill="#525566" d="M26.058 30.797v.139l1.074.624v-.139z"></path><path fill="#474B59" d="M27.132 31.421v.139l1.692-.977v-.139z"></path><path fill="#5B5E71" d="m24.37 31.772 1.074.624 1.083-.626-1.074-.624z"></path><path fill="#474B59" d="M25.444 32.396v.139l1.083-.626v-.139z"></path><path fill="#525566" d="M24.37 31.772v.138l1.074.625v-.139zM25.95 32.69v.138l1.074.625-.001-.139z"></path><path fill="#474B59" d="m27.023 33.314.001.139 2.773-1.602v-.138z"></path><path fill="#5B5E71" d="m25.95 32.69 1.073.624 2.774-1.601-1.074-.625z"></path><path fill="#525566" d="M22.68 32.747v.139l1.074.624v-.139z"></path><path fill="#474B59" d="M23.754 33.371v.139l1.083-.625v-.139z"></path><path fill="#5B5E71" d="m22.68 32.747 1.074.624 1.083-.625-1.074-.624z"></path><path fill="#525566" d="M20.992 33.722v.139l1.074.624v-.139z"></path><path fill="#474B59" d="M22.066 34.346v.139l1.081-.624v-.139z"></path><path fill="#5B5E71" d="m20.992 33.722 1.074.624 1.081-.624-1.074-.624z"></path><path fill="#525566" d="M19.302 34.697v.139l1.074.624v-.138z"></path><path fill="#474B59" d="M20.376 35.322v.138l1.084-.625-.001-.139z"></path><path fill="#5B5E71" d="m19.302 34.697 1.074.625 1.083-.626-1.074-.624z"></path><path fill="#525566" d="M17.612 35.673v.139l1.074.624v-.139z"></path><path fill="#474B59" d="M18.686 36.297v.139l1.084-.625-.001-.139z"></path><path fill="#5B5E71" d="m17.612 35.673 1.074.624 1.083-.625-1.074-.624z"></path><path fill="#525566" d="M15.922 36.649v.139l1.074.624v-.139z"></path><path fill="#474B59" d="M16.996 37.273v.139l1.084-.625-.001-.139z"></path><path fill="#5B5E71" d="m15.922 36.649 1.074.624 1.083-.625-1.074-.624z"></path><path fill="#525566" d="m14.234 37.623.001.139 1.074.624-.001-.138z"></path><path fill="#474B59" d="m15.308 38.248.001.138 1.083-.625-.001-.139z"></path><path fill="#5B5E71" d="m14.234 37.623 1.074.625 1.083-.626-1.074-.624z"></path><path fill="#525566" d="m12.544 38.599.001.139 1.073.624v-.139z"></path><path fill="#474B59" d="M13.618 39.223v.139l1.084-.625-.001-.139z"></path><path fill="#5B5E71" d="m12.544 38.599 1.074.624 1.083-.625-1.074-.624z"></path><path fill="#525566" d="m33.668 26.403.001.139 1.074.624-.001-.139z"></path><path fill="#474B59" d="m34.742 27.027.001.139 1.083-.625-.001-.139z"></path><path fill="#5B5E71" d="m33.668 26.403 1.074.624 1.083-.625-1.074-.624z"></path><path fill="#525566" d="m31.978 27.379.001.139 1.074.624-.001-.139z"></path><path fill="#474B59" d="m33.052 28.003.001.139 1.083-.626-.001-.138z"></path><path fill="#5B5E71" d="m31.978 27.379 1.074.624 1.083-.625-1.074-.625z"></path><path fill="#525566" d="m30.288 28.355.001.138 1.074.625-.001-.139z"></path><path fill="#474B59" d="m31.362 28.979.001.139 1.083-.626-.001-.139z"></path><path fill="#5B5E71" d="m30.288 28.355 1.074.624 1.083-.626-1.074-.624z"></path><path fill="#525566" d="m24.259 33.665.001.139 1.074.624-.001-.139z"></path><path fill="#474B59" d="m25.333 34.289.001.139 1.083-.625v-.139z"></path><path fill="#5B5E71" d="m24.259 33.665 1.074.624 1.084-.625-1.074-.624z"></path><path fill="#525566" d="M22.572 34.64v.139l1.074.624v-.139z"></path><path fill="#474B59" d="M23.646 35.264v.139l1.081-.624v-.139z"></path><path fill="#5B5E71" d="m22.572 34.64 1.074.624 1.081-.624-1.074-.624z"></path><path fill="#525566" d="M20.882 35.615v.139l1.074.624v-.138z"></path><path fill="#474B59" d="M21.956 36.24v.138l1.083-.625v-.139z"></path><path fill="#5B5E71" d="m20.882 35.615 1.074.625 1.083-.626-1.074-.624z"></path><path fill="#525566" d="M19.192 36.591v.139l1.074.624v-.139z"></path><path fill="#474B59" d="M20.266 37.215v.139l1.083-.625v-.139z"></path><path fill="#5B5E71" d="m19.192 36.591 1.074.624 1.083-.625-1.074-.624z"></path><path fill="#525566" d="M17.502 37.567v.139l1.074.624v-.139z"></path><path fill="#474B59" d="M18.576 38.191v.139l1.083-.625v-.139z"></path><path fill="#5B5E71" d="m17.502 37.567 1.074.624 1.083-.625-1.074-.624z"></path><path fill="#525566" d="M15.814 38.541v.139l1.074.624v-.138z"></path><path fill="#474B59" d="M16.888 39.166v.138l1.083-.625v-.139z"></path><path fill="#5B5E71" d="m15.814 38.541 1.074.625 1.083-.626-1.074-.624z"></path><path fill="#525566" d="M14.124 39.517v.139l1.074.624v-.139z"></path><path fill="#474B59" d="M15.198 40.141v.139l1.083-.625v-.139z"></path><path fill="#5B5E71" d="m14.124 39.517 1.074.624 1.083-.625-1.074-.624z"></path><path fill="#525566" d="m9.166 40.549.001.139 1.074.624-.001-.139z"></path><path fill="#474B59" d="m10.24 41.173.001.139 2.771-1.6-.001-.138z"></path><path fill="#5B5E71" d="m9.166 40.549 1.074.624 2.771-1.599-1.074-.624z"></path><path fill="#525566" d="M12.434 40.493v.139l1.074.624v-.139z"></path><path fill="#474B59" d="M13.508 41.117v.139l1.083-.626v-.138z"></path><path fill="#5B5E71" d="m12.434 40.493 1.074.624 1.083-.625-1.074-.625z"></path><path fill="#525566" d="M10.746 41.467v.139l1.074.624v-.139z"></path><path fill="#474B59" d="M11.82 42.091v.139l1.081-.624v-.139z"></path><path fill="#5B5E71" d="m10.746 41.467 1.074.624 1.081-.624-1.074-.624z"></path><path fill="#525566" d="M30.907 31.657v.139l1.074.624v-.139z"></path><path fill="#474B59" d="M31.981 32.281v.139l1.084-.625-.001-.139z"></path><path fill="#5B5E71" d="m30.907 31.657 1.074.624 1.083-.625-1.074-.624z"></path><path fill="#525566" d="m29.219 32.632.001.139 1.074.624-.001-.139z"></path><path fill="#474B59" d="m30.293 33.256.001.139 1.083-.626-.001-.138z"></path><path fill="#5B5E71" d="m29.219 32.632 1.074.624 1.083-.625-1.074-.625z"></path><path fill="#525566" d="m27.529 33.608.001.138 1.074.624-.001-.138z"></path><path fill="#474B59" d="m28.603 34.232.001.138 1.083-.625-.001-.139z"></path><path fill="#5B5E71" d="m27.529 33.608 1.074.624 1.083-.626-1.074-.624z"></path><path fill="#525566" d="m25.839 34.583.001.139 1.073.624v-.139z"></path><path fill="#474B59" d="M26.913 35.207v.139l1.084-.625-.001-.139z"></path><path fill="#5B5E71" d="m25.839 34.583 1.074.624 1.083-.625-1.074-.624z"></path><path fill="#525566" d="m24.151 35.558.001.139 1.074.624-.001-.139z"></path><path fill="#474B59" d="m25.225 36.182.001.139 1.081-.624-.001-.139z"></path><path fill="#5B5E71" d="m24.151 35.558 1.074.624 1.081-.624-1.074-.624z"></path><path fill="#525566" d="m22.461 36.533.001.139 1.074.624-.001-.138z"></path><path fill="#474B59" d="m23.535 37.158.001.138 1.083-.625-.001-.139z"></path><path fill="#5B5E71" d="m22.461 36.533 1.074.625 1.083-.626-1.074-.624z"></path><path fill="#525566" d="m20.771 37.509.001.139 1.074.624-.001-.139z"></path><path fill="#474B59" d="m21.845 38.133.001.139 1.083-.625-.001-.139z"></path><path fill="#5B5E71" d="m20.771 37.509 1.074.624 1.083-.625-1.074-.624z"></path><path fill="#525566" d="m19.081 38.485.001.139 1.074.624-.001-.139z"></path><path fill="#474B59" d="m20.155 39.109.001.139 1.083-.625-.001-.139z"></path><path fill="#5B5E71" d="m19.081 38.485 1.074.624 1.083-.625-1.074-.624z"></path><path fill="#525566" d="m17.393 39.459.001.139 1.074.624-.001-.138z"></path><path fill="#474B59" d="m18.467 40.084.001.138 1.083-.625v-.139z"></path><path fill="#5B5E71" d="m17.393 39.459 1.074.625 1.084-.626-1.074-.624z"></path><path fill="#525566" d="M12.326 42.385v.139l1.074.624-.001-.139z"></path><path fill="#474B59" d="m13.399 43.009.001.139 4.461-2.575v-.139z"></path><path fill="#5B5E71" d="m12.326 42.385 1.073.624 4.462-2.575-1.074-.624z"></path><path fill="#525566" d="m35.137 29.215.001.139 1.074.624-.001-.139z"></path><path fill="#474B59" d="m36.211 29.839.001.139 1.083-.626v-.138z"></path><path fill="#5B5E71" d="m35.137 29.215 1.074.624 1.084-.625-1.074-.625z"></path><path fill="#525566" d="M32.487 32.575v.139l1.074.624v-.139z"></path><path fill="#474B59" d="M33.561 33.199v.139l1.083-.625v-.139z"></path><path fill="#5B5E71" d="m32.487 32.575 1.074.624 1.083-.625-1.074-.624z"></path><path fill="#525566" d="M30.799 33.55v.139l1.074.624v-.139z"></path><path fill="#474B59" d="M31.873 34.174v.139l1.083-.626v-.138z"></path><path fill="#5B5E71" d="m30.799 33.55 1.074.624 1.083-.625-1.074-.625z"></path><path fill="#525566" d="M17.281 41.352v.139l1.076.625v-.139z"></path><path fill="#474B59" d="M18.357 41.977v.139l12.909-7.453v-.139z"></path><path fill="#5B5E71" d="m17.281 41.352 1.076.625 12.909-7.453-1.076-.625z"></path><path fill="#525566" d="M15.593 42.329v.139l1.074.624v-.139z"></path><path fill="#474B59" d="M16.667 42.953v.139l1.084-.626-.001-.138z"></path><path fill="#5B5E71" d="m15.593 42.329 1.074.624 1.083-.625-1.074-.625z"></path><path fill="#525566" d="m13.905 43.303.001.139 1.074.624-.001-.139z"></path><path fill="#474B59" d="m14.979 43.927.001.139 1.081-.624-.001-.139z"></path><path fill="#5B5E71" d="m13.905 43.303 1.074.624 1.081-.624-1.074-.624z"></path><path fill="#525566" d="m38.407 29.157.001.139 1.073.624v-.139z"></path><path fill="#474B59" d="M39.481 29.781v.139l1.084-.625-.001-.139z"></path><path fill="#5B5E71" d="m38.407 29.157 1.074.624 1.083-.625-1.074-.624z"></path><path fill="#525566" d="M36.717 30.133v.139l1.074.624v-.139z"></path><path fill="#474B59" d="M37.791 30.757v.139l1.084-.626-.001-.138z"></path><path fill="#5B5E71" d="m36.717 30.133 1.074.624 1.083-.625-1.074-.625z"></path><path fill="#525566" d="M35.027 31.109v.138l1.074.625v-.139z"></path><path fill="#474B59" d="M36.101 31.733v.139l1.084-.626-.001-.139z"></path><path fill="#5B5E71" d="m35.027 31.109 1.074.624 1.083-.626-1.074-.624z"></path><path fill="#E74C3C" d="M19.838 12.56 6.27 20.392l.024 8.449 13.568-7.834-.024-8.449zm-6.762 10.936c-1.348.777-2.44.153-2.444-1.392-.005-1.544 1.082-3.427 2.424-4.2 1.343-.776 2.435-.152 2.44 1.392.004 1.545-1.082 3.423-2.42 4.2z"></path><path fill="#3498DB" d="m29.861 20.974-8.3 4.796-.013-3.996 8.301-4.792z"></path><path fill="#2ECC71" d="m29.845 15.246-8.303 4.792-.022-8.452 8.3-4.792z"></path><path fill="#F1C40F" d="M19.867 22.749 6.3 30.578l.01 3.993 13.568-7.83-.01-3.992zm-1.042 1.347v.433L7.312 31.178l-.005-.433 11.518-6.649zm-5.906 5.911-5.602 3.236v-.438l5.602-3.235v.437z"></path><path fill="#E74C3C" d="m12.087 19.818 2.327.103-2.318 2.781z"></path><path fill="#FFF" d="M18.826 24.094l.001.436-11.516 6.649-.001-.436zM18.829 25.127l.001.436-11.516 6.649-.001-.437zM12.917 29.57l.001.437-5.601 3.234-.001-.437zM22.722 14.756l.008 4.604-.533.307-.008-4.603zM23.799 15.048l.006 3.691-.534.308-.005-3.691zM24.872 13.894l.007 4.225-.533.308-.007-4.225zM25.949 14.339l.004 3.16-.533.308-.004-3.16zM27.019 12.085l.009 4.793-.533.308-.009-4.793zM28.097 12.565l.005 3.693-.533.308-.006-3.694zM29.168 11.032l.009 4.606-.534.308-.008-4.606zM29.168 10.722l-.001-.392-.533.308.001.392zM29.168 10.077l-.001-.392-.533.307.001.393zM28.1 12.302l-.001-.392-.533.308.001.392zM28.1 11.657l-.001-.392-.533.307.001.393zM27.024 11.777l-.001-.392-.533.307.001.393zM27.024 11.132l-.001-.393-.533.308.001.393zM25.952 14.13l-.001-.392-.533.308.001.392zM25.952 13.485l-.001-.392-.533.307.001.393zM24.876 13.648l-.001-.393-.533.308.001.393zM24.876 13.003l-.001-.393-.533.308.001.393zM23.802 14.74l-.001-.392-.533.308.001.392zM23.802 14.095l-.001-.392-.533.307.001.393zM22.727 14.372l-.001-.393-.534.308.001.392zM22.727 13.726l-.001-.392-.534.308.001.392zM29.061 18.54l.009 2.908-.535.309-.009-2.908zM27.99 20.073l.005 1.995-.535.309-.006-1.995zM26.914 20.159l.007 2.53-.535.309-.007-2.53zM25.842 21.845l.004 1.464-.535.309-.004-1.464zM24.763 20.831l.009 3.098-.535.309-.009-3.098zM23.692 22.552l.006 1.998-.535.309-.006-1.998zM22.615 22.26l.008 2.91-.535.309-.008-2.91z"></path><path fill="#474B59" d="M29.668 25.212 8.335 37.482c-.05-.231-.209-.472-.402-.583-.117-.07-.221-.072-.297-.028l21.336-12.27c.076-.044.18-.041.298.029a.93.93 0 0 1 .398.582z"></path><path fill="#3F434F" d="M7.933 36.898c.192.111.351.352.401.583l-.805-.465c.053-.172.213-.228.404-.118z"></path></svg>