<svg xmlns="http://www.w3.org/2000/svg" viewBox="0 0 32 32" id="communication"><circle cx="29" cy="21.5" r="1.5" fill="#d5e5f2"></circle><circle cx="29" cy="5.5" r="1.5" fill="#d5e5f2"></circle><circle cx="3" cy="29.5" r="1.5" fill="#70bb57"></circle><circle cx="3" cy="13.5" r="1.5" fill="#70bb57"></circle><path fill="#eef2fa" d="M23.5 18v3l2 2h-13c-.6 0-1-.4-1-1v-4c0-.6.4-1 1-1h10c.6 0 1 .4 1 1z"></path><path fill="#d5e5f2" d="M15.5 21h-1c-.6 0-1-.4-1-1v-3h-1c-.6 0-1 .4-1 1v4c0 .6.4 1 1 1h13l-2-2h-8z"></path><path fill="#eef2fa" d="M23.5 2v3l2 2h-8c-.6 0-1-.4-1-1V2c0-.6.4-1 1-1h5c.6 0 1 .4 1 1z"></path><path fill="#d5e5f2" d="M20.5 5h-1c-.6 0-1-.4-1-1V1h-1c-.6 0-1 .4-1 1v4c0 .6.4 1 1 1h8l-2-2h-3z"></path><path fill="#91ca60" d="M8.5 26v3l-2 2h8c.6 0 1-.4 1-1v-4c0-.6-.4-1-1-1h-5c-.6 0-1 .4-1 1z"></path><path fill="#70bb57" d="M14.5 25h-1v3c0 .6-.4 1-1 1h-4l-2 2h8c.6 0 1-.4 1-1v-4c0-.6-.4-1-1-1z"></path><path fill="#91ca60" d="M8.5 10v3l-2 2h14c.6 0 1-.4 1-1v-4c0-.6-.4-1-1-1h-11c-.6 0-1 .4-1 1z"></path><path fill="#70bb57" d="M20.5 9h-1v3c0 .6-.4 1-1 1h-10l-2 2h14c.6 0 1-.4 1-1v-4c0-.6-.4-1-1-1z"></path><circle cx="10.5" cy="27" r=".5" fill="#004463"></circle><circle cx="10.5" cy="29" r=".5" fill="#004463"></circle><path fill="#004463" d="M12.5 29.5c-.3 0-.5-.2-.5-.5s.2-.5.5-.5.5-.2.5-.5-.2-.5-.5-.5-.5-.2-.5-.5.2-.5.5-.5c.8 0 1.5.7 1.5 1.5s-.7 1.5-1.5 1.5zm9-10h-8c-.3 0-.5-.2-.5-.5s.2-.5.5-.5h8c.3 0 .5.2.5.5s-.2.5-.5.5zm-3 2h-5c-.3 0-.5-.2-.5-.5s.2-.5.5-.5h5c.3 0 .5.2.5.5s-.2.5-.5.5zm3-18h-3c-.3 0-.5-.2-.5-.5s.2-.5.5-.5h3c.3 0 .5.2.5.5s-.2.5-.5.5zm0 2h-3c-.3 0-.5-.2-.5-.5s.2-.5.5-.5h3c.3 0 .5.2.5.5s-.2.5-.5.5zm-2 6h-9c-.3 0-.5-.2-.5-.5s.2-.5.5-.5h9c.3 0 .5.2.5.5s-.2.5-.5.5zm0 2h-9c-.3 0-.5-.2-.5-.5s.2-.5.5-.5h9c.3 0 .5.2.5.5s-.2.5-.5.5z"></path></svg>